<svg width="36" height="24" viewBox="0 0 36 24" fill="none" xmlns="http://www.w3.org/2000/svg">
<path d="M12.5 15.5C13.3284 15.5 14 16.1716 14 17C14 17.8284 13.3284 18.5 12.5 18.5C11.6716 18.5 11 17.8284 11 17C11 16.1716 11.6716 15.5 12.5 15.5ZM29 18H16V16H29V18ZM12.5 10.5C13.3284 10.5 14 11.1716 14 12C14 12.8284 13.3284 13.5 12.5 13.5C11.6716 13.5 11 12.8284 11 12C11 11.1716 11.6716 10.5 12.5 10.5ZM29 13H16V11H29V13ZM12.5 5.5C13.3284 5.5 14 6.17157 14 7C14 7.82843 13.3284 8.5 12.5 8.5C11.6716 8.5 11 7.82843 11 7C11 6.17157 11.6716 5.5 12.5 5.5ZM29 8H16V6H29V8Z" fill="#21201F"/>
</svg>
