<svg width="48" height="48" viewBox="0 0 48 48" fill="none" xmlns="http://www.w3.org/2000/svg">
<g clip-path="url(#clip0_32_3511)">
<path d="M2.99939 6.87502V32.4175C2.99939 36.2145 6.07744 39.2926 9.87441 39.2926H16.9932H19.109V48.0003L29.1638 39.2926H37.9586C41.7556 39.2926 44.8336 36.2145 44.8336 32.4175V6.87503C44.8336 3.07805 41.7556 0 37.9586 0H34.334H9.87442C6.07744 0 2.99939 3.07805 2.99939 6.87502Z" fill="#262222"/>
<path d="M21.4909 12.109H20.0018C19.1135 12.109 18.4604 12.2065 18.0424 12.4016C17.6244 12.5967 17.2717 12.9868 16.9844 13.5721C16.7057 14.1485 16.5359 14.8357 16.4749 15.6338H14.9989V10.4995H32.7244V15.6338H31.2484C30.9697 14.2505 30.5778 13.3194 30.0728 12.8405C29.5677 12.3528 28.7622 12.109 27.6562 12.109H26.128V24.8515C26.128 25.6762 26.2629 26.2526 26.5329 26.5807C26.8116 26.8999 27.3906 27.0596 28.2702 27.0596H28.7274V28.536H18.9437V27.0596H19.3617C20.2499 27.0596 20.8247 26.8955 21.0859 26.5674C21.3559 26.2304 21.4909 25.6585 21.4909 24.8515V12.109Z" fill="#FCE000"/>
</g>
<defs>
<clipPath id="clip0_32_3511">
<rect width="48" height="48" fill="white"/>
</clipPath>
</defs>
</svg>
