<svg width="21" height="21" viewBox="0 0 21 21" fill="none" xmlns="http://www.w3.org/2000/svg">
<path d="M10.5 1.75C8.08375 1.75 6.125 3.70875 6.125 6.125V9.625C6.125 12.0412 8.08375 14 10.5 14C12.9162 14 14.875 12.0412 14.875 9.625V6.125C14.875 3.70875 12.9162 1.75 10.5 1.75Z" fill="#48C600"/>
<path d="M9.28524 17.4069L9.625 20.125H11.375L11.7148 17.4069C15.4872 16.8228 18.375 13.5611 18.375 9.625H16.625C16.625 13.0077 13.8827 15.75 10.5 15.75C7.11726 15.75 4.375 13.0077 4.375 9.625H2.625C2.625 13.5611 5.51276 16.8228 9.28524 17.4069Z" fill="#48C600"/>
</svg>
