<svg width="49" height="48" viewBox="0 0 49 48" fill="none" xmlns="http://www.w3.org/2000/svg">
<path d="M40.5856 23.9502C41.1985 25.2579 40.2446 26.7588 38.8004 26.7588H33.6959V37.2627C33.6959 37.8073 33.2541 38.249 32.7096 38.249H23.5739V43.7197H10.6588C7.90168 43.7196 5.66663 41.4847 5.66663 38.7275V8.58398C5.66681 6.13161 7.4482 4.04203 9.86975 3.6543L29.5924 0.49707L40.5856 23.9502Z" fill="#262222"/>
<circle cx="27.9543" cy="32.2878" r="2" fill="#FCE000"/>
<path d="M32.7457 18.0674C30.1133 16.0167 26.8009 14.7941 23.2067 14.7939C19.6122 14.7939 16.2992 16.0166 13.6666 18.0674L15.1608 19.9854C17.3815 18.2554 20.1724 17.2256 23.2067 17.2256C26.2406 17.2258 29.031 18.2555 31.2516 19.9854L32.7457 18.0674Z" fill="#FCE000"/>
<circle cx="25.3193" cy="19.3475" r="3.65268" fill="#FCE000"/>
</svg>
