<svg width="24" height="23" viewBox="0 0 24 23" fill="none" xmlns="http://www.w3.org/2000/svg">
<path d="M9.23077 0.5C4.19723 0.5 0 3.96154 0 8.34615C0 10.5892 1.22769 12.5443 2.97138 13.9714C2.85789 14.7294 2.5497 15.445 2.07692 16.0483C1.8839 16.2959 1.68192 16.5364 1.47138 16.7692C1.36249 16.8839 1.26567 17.0095 1.18246 17.144C1.12985 17.2298 1.04769 17.3258 1.00985 17.5197C0.972 17.7135 1.02369 18.0302 1.18246 18.2692L1.29785 18.4714L1.52862 18.5868C2.33631 18.9902 3.20862 18.9191 4.00985 18.7022C4.81015 18.4843 5.58 18.1114 6.31754 17.7209C7.05508 17.3305 7.75477 16.9234 8.30769 16.6252C8.38523 16.5837 8.43508 16.5735 8.50985 16.5385C9.96554 18.5397 12.6314 19.8846 15.6055 19.8846C15.6342 19.8883 15.6609 19.8846 15.6923 19.8846C16.8923 19.8846 20.7692 23.8483 23.0769 22.2791C23.1692 21.9108 21.048 20.9868 20.9418 18.2406C22.7483 16.964 23.9142 15.0652 23.9142 12.9615C23.9142 9.84892 21.444 7.27723 18.1449 6.356C17.1009 2.95908 13.4714 0.5 9.23077 0.5ZM9.23077 2.34615C13.428 2.34615 16.6154 5.16154 16.6154 8.34615C16.6154 11.5308 13.428 14.3462 9.23077 14.3462C8.48123 14.3462 8.05108 14.6526 7.44185 14.9812C6.83262 15.3098 6.13385 15.716 5.45169 16.0769C4.86092 16.3889 4.29785 16.6289 3.77908 16.7978C4.284 16.0686 4.81108 15.1095 4.90338 13.7692L4.93292 13.2495L4.5 12.9329C2.85508 11.78 1.84615 10.1212 1.84615 8.34615C1.84615 5.16154 5.03354 2.34615 9.23077 2.34615Z" fill="#262222"/>
</svg>
