<svg width="24" height="24" viewBox="0 0 24 24" fill="none" xmlns="http://www.w3.org/2000/svg">
<path d="M16.9565 11.9904C16.9545 10.9368 16.6198 9.91075 16 9.05871L17.6174 7.88223C18.4851 9.07509 18.9537 10.5116 18.9565 11.9866C18.9593 13.4617 18.4961 14.8999 17.633 16.096L16.0111 14.9257C16.6277 14.0713 16.9585 13.044 16.9565 11.9904Z" fill="black"/>
<path d="M19.2347 6.70577C20.3503 8.23945 20.9529 10.0863 20.9565 11.9828C20.9601 13.8793 20.3645 15.7285 19.2548 17.2664L20.8766 18.4367C22.233 16.5571 22.9609 14.297 22.9565 11.979C22.9521 9.6611 22.2156 7.40379 20.8521 5.5293L19.2347 6.70577Z" fill="black"/>
<path d="M11 2C13.2091 2 15 6.47715 15 12C15 17.5228 13.2091 22 11 22C10.3712 22 9.77739 21.6365 9.24805 20.9902C7.91754 19.3659 7 15.951 7 12C7 8.04857 7.91728 4.63289 9.24805 3.00879C9.77727 2.36291 10.3714 2 11 2ZM6.51953 5.0791C5.86937 7.00716 5.5 9.4224 5.5 12C5.5 14.5772 5.86956 16.992 6.51953 18.9199L4 17H3C1.89543 17 1 14.7614 1 12C1 9.23858 1.89543 7 3 7H4L6.51953 5.0791ZM9.20117 9.00098C9.0732 9.92481 9.00002 10.9336 9 12C9.00001 13.067 9.07308 14.0767 9.20117 15.001C9.35805 15.0011 9.49709 15.001 9.60059 15.001C10.2631 15.0004 10.7998 13.6574 10.7998 12.001C10.7998 10.3446 10.2631 9.00152 9.60059 9.00098C9.49709 9.00098 9.35805 9.00109 9.20117 9.00098Z" fill="black"/>
</svg>
