<svg width="49" height="48" viewBox="0 0 49 48" fill="none" xmlns="http://www.w3.org/2000/svg">
<g opacity="0.3">
<path d="M40.5093 24C40.5093 22.7288 40.8993 21.4653 41.7757 20.5445L45.3334 16.806L40.882 9.194L35.8285 10.3516C34.5853 10.6364 33.2954 10.3416 32.1878 9.70935C31.0605 9.06594 30.1364 8.08126 29.7583 6.83957L28.2847 2H19.382L17.9098 6.86632C17.5318 8.11595 16.5914 9.09899 15.4525 9.73731C14.3604 10.3494 13.0949 10.6395 11.8746 10.36L6.78472 9.194L2.33337 16.806L5.8911 20.5445C6.76746 21.4653 7.15748 22.7288 7.15748 24C7.15748 25.2712 6.76746 26.5347 5.8911 27.4555L2.33337 31.194L6.78472 38.806L11.8383 37.6484C13.0815 37.3636 14.3713 37.6584 15.479 38.2907C16.6062 38.9341 17.5304 39.9187 17.9085 41.1604L19.382 46H28.2847L29.7601 41.1231C30.1363 39.8795 31.0697 38.8994 32.2007 38.2599C33.3015 37.6374 34.5803 37.3427 35.8121 37.6287L40.882 38.806L45.3334 31.194L41.7756 27.4555C40.8993 26.5347 40.5093 25.2712 40.5093 24Z" fill="#262222"/>
<circle cx="23.8334" cy="24" r="8" fill="white"/>
</g>
</svg>
