<svg width="20" height="21" viewBox="0 0 20 21" fill="none" xmlns="http://www.w3.org/2000/svg">
<path d="M17.0711 3.42898C18.9464 5.30434 20.0003 7.84788 20.0003 10.5C20.0003 13.1522 18.9464 15.6957 17.0711 17.5711C15.1957 19.4465 12.6522 20.5004 10 20.5004C7.34784 20.5004 4.8043 19.4465 2.92893 17.5711C1.05357 15.6957 -0.00031205 13.1522 -0.000312724 10.5C-0.000312303 7.84788 1.05357 5.30434 2.92893 3.42898C4.8043 1.55361 7.34784 0.499733 10 0.499733C12.6522 0.499733 15.1957 1.55361 17.0711 3.42898ZM11.0006 9.49946L10.9999 4.83905H9.00011V9.49877L4.33969 9.49946V11.5006L9.00011 11.4999L8.99942 16.1604H11.0006V11.4992L15.661 11.4999V9.50015L11.0006 9.49946Z" fill="#21201F"/>
</svg>
