<svg width="56" height="56" viewBox="0 0 56 56" fill="none" xmlns="http://www.w3.org/2000/svg">
<rect width="56" height="56" rx="28" fill="#080808" fill-opacity="0.08"/>
<path fill-rule="evenodd" clip-rule="evenodd" d="M36.5638 23.9699C36.6088 24.0899 36.6258 24.2099 36.6118 24.3299C36.5988 24.4499 36.5558 24.57 36.4868 24.67C36.4178 24.77 36.3258 24.86 36.2178 24.91C36.1098 24.97 35.9888 24.9999 35.8668 24.9999H30.8148C30.6788 24.9999 30.5448 24.9599 30.4288 24.8899C30.3118 24.8199 30.2168 24.7199 30.1528 24.5999C30.0888 24.4799 30.0588 24.3499 30.0658 24.2099C30.0738 24.0699 30.1178 23.9399 30.1938 23.8299L31.2018 22.3399C30.3098 21.8399 29.3098 21.5499 28.2858 21.5099C27.2618 21.4599 26.2408 21.6599 25.3078 22.0799C24.3738 22.5099 23.5548 23.1499 22.9148 23.9499C22.2758 24.7499 21.8358 25.6899 21.6298 26.6999C21.6038 26.8199 21.5518 26.95 21.4788 27.06C21.4048 27.16 21.3108 27.2599 21.2018 27.3299C21.0918 27.3999 20.9688 27.4499 20.8398 27.4799C20.7108 27.4999 20.5788 27.4999 20.4498 27.4799C20.3208 27.4499 20.1988 27.3999 20.0898 27.3199C19.9808 27.2499 19.8878 27.16 19.8158 27.05C19.7428 26.94 19.6928 26.8199 19.6678 26.6899C19.6428 26.5599 19.6438 26.42 19.6698 26.3C19.9418 24.97 20.5258 23.73 21.3758 22.67C22.2248 21.61 23.3138 20.7799 24.5528 20.2299C25.7908 19.6799 27.1428 19.4299 28.4948 19.5099C29.8478 19.5899 31.1618 19.99 32.3278 20.68L33.3838 19.1199C33.4608 19.0099 33.5658 18.9199 33.6898 18.8599C33.8138 18.8099 33.9508 18.78 34.0868 18.8C34.2218 18.81 34.3508 18.8699 34.4598 18.9499C34.5678 19.0299 34.6518 19.1399 34.7018 19.2699L36.5638 23.9699ZM23.6728 35.3199L22.6158 36.8799C22.5388 36.9899 22.4338 37.0799 22.3098 37.1399C22.1858 37.1899 22.0488 37.2199 21.9128 37.1999C21.7778 37.1899 21.6488 37.13 21.5398 37.05C21.4318 36.97 21.3478 36.8599 21.2978 36.7299L19.4358 32.03C19.3908 31.91 19.3748 31.79 19.3878 31.67C19.4008 31.55 19.4438 31.4299 19.5128 31.3299C19.5818 31.2299 19.6738 31.1399 19.7818 31.0899C19.8898 31.0299 20.0108 30.9999 20.1328 30.9999H25.1848C25.3208 30.9999 25.4548 31.0399 25.5708 31.1099C25.6878 31.1799 25.7828 31.2799 25.8468 31.3999C25.9108 31.5199 25.9408 31.65 25.9338 31.79C25.9258 31.93 25.8818 32.06 25.8058 32.17L24.7978 33.66C25.6908 34.16 26.6908 34.4499 27.7158 34.4899C28.7408 34.5399 29.7618 34.34 30.6958 33.92C31.6288 33.49 32.4488 32.85 33.0878 32.05C33.7268 31.24 34.1658 30.3 34.3708 29.3C34.3958 29.17 34.4458 29.04 34.5178 28.93C34.5908 28.82 34.6848 28.7299 34.7948 28.6499C34.9048 28.5799 35.0288 28.5299 35.1588 28.4999C35.2888 28.4699 35.4218 28.4699 35.5518 28.4999C35.6818 28.5299 35.8058 28.5799 35.9148 28.6499C36.0248 28.7299 36.1188 28.82 36.1908 28.93C36.2638 29.04 36.3128 29.17 36.3368 29.3C36.3608 29.43 36.3588 29.5599 36.3308 29.6899C36.0608 31.0199 35.4768 32.2699 34.6288 33.3199C33.7798 34.3799 32.6908 35.2199 31.4518 35.7699C30.2128 36.3199 28.8608 36.5699 27.5078 36.4899C26.1548 36.4099 24.8398 36.0099 23.6728 35.3199Z" fill="#030303"/>
</svg>
