<svg width="48" height="48" viewBox="0 0 48 48" fill="none" xmlns="http://www.w3.org/2000/svg">
<rect width="48" height="48" rx="24" fill="#FCE000"/>
<path d="M18.418 16.0882L32.295 23.0267C33.097 23.4277 33.097 24.5723 32.295 24.9733L18.418 31.9118C17.7944 32.2236 17.0922 31.6603 17.2613 30.9839L18.5636 25.7745C18.6766 25.3226 19.0647 24.9927 19.5289 24.954L27.4414 24.2946C27.5946 24.2819 27.7125 24.1538 27.7125 24C27.7125 23.8462 27.5946 23.7181 27.4414 23.7054L19.5289 23.046C19.0647 23.0073 18.6766 22.6774 18.5636 22.2255L17.2613 17.0161C17.0922 16.3397 17.7944 15.7764 18.418 16.0882Z" fill="black"/>
</svg>
