<svg width="224" height="224" viewBox="0 0 224 224" fill="none" xmlns="http://www.w3.org/2000/svg">
<rect width="224" height="224" fill="#FCE000"/>
<path d="M90 20V66L135 168H154.667V196.001L187 168H204C215.046 168 224 159.046 224 148V40L184 0H110C98.9543 0 90 8.95431 90 20Z" fill="#3C3C3C"/>
<path d="M135 168L90 66L16.9259 77.3671C7.18425 78.8825 0 87.2707 0 97.1294V204C0 215.046 8.9543 224 20 224H68V204H105V168H135Z" fill="white"/>
<path d="M95 130C90.1701 133.763 84.0968 136.004 77.5 136.004C70.9032 136.004 64.8299 133.763 60 130" stroke="#3C3C3C" stroke-width="8"/>
<circle cx="83" cy="181.5" r="6.5" fill="#3C3C3C"/>
<path d="M184 40V0L224 40H184Z" fill="white"/>
<path d="M148.285 61.5063H142.886C139.665 61.5063 137.297 61.8537 135.781 62.5483C134.266 63.243 132.987 64.6323 131.945 66.7163C130.934 68.7687 130.319 71.2158 130.098 74.0576H124.746V55.7754H189.018V74.0576H183.666C182.655 69.1318 181.234 65.8164 179.403 64.1113C177.571 62.3747 174.651 61.5063 170.641 61.5063H165.099V106.88C165.099 109.817 165.589 111.869 166.567 113.038C167.578 114.174 169.678 114.743 172.867 114.743H174.524V120H139.049V114.743H140.565C143.786 114.743 145.87 114.159 146.817 112.99C147.796 111.79 148.285 109.754 148.285 106.88V61.5063Z" fill="white"/>
</svg>
