<svg width="49" height="48" viewBox="0 0 49 48" fill="none" xmlns="http://www.w3.org/2000/svg">
<g opacity="0.3">
<path d="M40.5857 23.9502C41.1987 25.2579 40.2448 26.7588 38.8005 26.7588H33.696V37.2627C33.696 37.8073 33.2543 38.249 32.7097 38.249H23.574V43.7197H10.6589C7.90181 43.7196 5.66675 41.4847 5.66675 38.7275V8.58398C5.66693 6.13161 7.44832 4.04203 9.86987 3.6543L29.5925 0.49707L40.5857 23.9502Z" fill="#262222"/>
<circle cx="27.9546" cy="32.2876" r="2" fill="white"/>
<path d="M32.7458 18.0674C30.1134 16.0167 26.801 14.7941 23.2068 14.7939C19.6123 14.7939 16.2994 16.0166 13.6667 18.0674L15.1609 19.9854C17.3816 18.2554 20.1725 17.2256 23.2068 17.2256C26.2408 17.2258 29.0312 18.2555 31.2517 19.9854L32.7458 18.0674Z" fill="white"/>
<circle cx="25.3194" cy="19.3475" r="3.65268" fill="white"/>
</g>
</svg>
