<svg width="102" height="48" viewBox="0 0 102 48" fill="none" xmlns="http://www.w3.org/2000/svg">
<g clip-path="url(#clip0_0_878)">
<mask id="mask0_0_878" style="mask-type:alpha" maskUnits="userSpaceOnUse" x="0" y="0" width="49" height="48">
<ellipse cx="24.3334" cy="24" rx="24.2424" ry="24" fill="white"/>
</mask>
<g mask="url(#mask0_0_878)">
<rect width="48.4849" height="48" transform="translate(0.0909424)" fill="#FC3F1D"/>
<path d="M27.9081 13.4409H25.4546C21.2487 13.4409 19.1457 15.5228 19.1457 18.6457C19.1457 22.1156 20.5477 23.8505 23.7021 25.9325L26.1556 27.6674L19.1457 38.424H13.5378L20.1972 28.7084C16.3418 25.9325 14.2388 23.5035 14.2388 18.9927C14.2388 13.4409 18.0943 9.62402 25.4546 9.62402H32.815V38.424H27.9081V13.4409Z" fill="white"/>
</g>
</g>
<path fill-rule="evenodd" clip-rule="evenodd" d="M55.3637 24C55.3637 36.1944 65.3491 46.08 77.6667 46.08C89.9844 46.08 99.9698 36.1944 99.9698 24C99.9698 11.8056 89.9844 1.92 77.6667 1.92C65.3491 1.92 55.3637 11.8056 55.3637 24ZM77.6667 0C64.278 0 53.4243 10.7452 53.4243 24C53.4243 37.2548 64.278 48 77.6667 48C91.0555 48 101.909 37.2548 101.909 24C101.909 10.7452 91.0555 0 77.6667 0Z" fill="#262222"/>
<path d="M67.7188 16.8265C67.8794 16.8142 68.0346 16.8503 68.1866 16.8949C68.4382 16.9689 68.6852 17.056 68.9395 17.1215C69.3204 17.2191 69.6998 17.3215 70.0811 17.4183C70.4074 17.5009 70.7353 17.5809 71.0635 17.6576C71.5785 17.7781 72.0959 17.8885 72.6143 17.9935C73.1505 18.102 73.6899 18.1966 74.2296 18.2865C74.535 18.3372 74.8411 18.3833 75.1485 18.4193C75.4627 18.4565 75.7779 18.4918 76.0928 18.5209C76.4938 18.5577 76.8958 18.5743 77.2979 18.5922C77.7261 18.6111 78.1521 18.5819 78.5792 18.5668C78.9051 18.5555 79.2289 18.5163 79.5528 18.4877C79.87 18.4598 80.1854 18.4092 80.501 18.3666C81.0456 18.2937 81.5871 18.2011 82.127 18.1C82.5645 18.0179 83.001 17.9291 83.4366 17.8353C84.0222 17.7094 84.6056 17.5714 85.1866 17.4261C85.691 17.2999 86.1936 17.1662 86.6944 17.0267C86.8925 16.9713 87.0883 16.9072 87.2891 16.8607C87.6775 16.7701 88.0213 16.8652 88.3233 17.1107C88.6359 17.3649 88.8164 17.7022 88.9161 18.0853C88.9407 18.1805 88.9585 18.278 88.9796 18.3744V18.806L88.9337 18.9808C88.9176 19.0393 88.8993 19.097 88.8741 19.1527C88.7428 19.4426 88.5273 19.6594 88.2667 19.8353C87.9025 20.0813 87.5 20.2462 87.085 20.3861C86.7317 20.5051 86.3799 20.6303 86.0274 20.7523C85.532 20.9236 85.0365 21.0944 84.5411 21.266C84.1207 21.4121 83.7008 21.56 83.2803 21.7064C82.9345 21.8269 82.5871 21.9426 82.2432 22.0677C81.9748 22.1654 81.7197 22.2918 81.4942 22.4701C81.3768 22.563 81.3104 22.6824 81.2803 22.8256C81.1963 23.2238 81.2124 23.6246 81.2589 24.0248C81.3112 24.4746 81.3725 24.9234 81.4307 25.3724C81.4651 25.6371 81.504 25.9017 81.5372 26.1664C81.5868 26.5599 81.6303 26.955 81.7042 27.3451C81.7847 27.7705 81.8674 28.1955 81.9483 28.6205C82.0616 29.218 82.1736 29.8159 82.2862 30.4135C82.4229 31.1387 82.56 31.864 82.6964 32.5892C82.8378 33.341 82.9791 34.0933 83.1202 34.8451C83.2104 35.3254 83.3028 35.8058 83.3907 36.2865C83.4204 36.4496 83.462 36.6111 83.4737 36.7777C83.4979 37.1194 83.4218 37.4355 83.2198 37.7133C82.883 38.176 82.4051 38.3708 81.8458 38.3949C81.6289 38.4042 81.4127 38.3983 81.1993 38.3363C80.8163 38.2251 80.5343 37.9932 80.3272 37.6615C80.1111 37.3151 80.013 36.9288 79.9356 36.5355C79.8633 36.1678 79.7952 35.7993 79.7217 35.432C79.6331 34.9878 79.5419 34.5444 79.4493 34.101C79.3825 33.7801 79.3106 33.4601 79.2423 33.14C79.1262 32.5979 78.9993 32.0585 78.8692 31.5199C78.75 31.027 78.6239 30.5353 78.4825 30.0482C78.3445 29.5739 78.2041 29.0997 78.0001 28.6478C77.9356 28.5049 77.8706 28.3606 77.753 28.2494C77.6753 28.1759 77.6061 28.176 77.5284 28.2513C77.4006 28.3753 77.3286 28.5339 77.2598 28.6927C77.0457 29.1867 76.8999 29.7029 76.7569 30.2201C76.5928 30.813 76.4533 31.4124 76.3145 32.0111C76.2184 32.4263 76.1294 32.843 76.043 33.2601C75.9258 33.8246 75.8134 34.3902 75.7012 34.9554C75.6317 35.3052 75.5643 35.6553 75.501 36.0062C75.4557 36.2579 75.4108 36.5098 75.3546 36.7592C75.2565 37.1927 75.1106 37.6074 74.7969 37.9398C74.5207 38.2327 74.1718 38.3766 73.7706 38.3949C73.5191 38.4061 73.2692 38.3952 73.0235 38.3275C72.4401 38.1663 71.9879 37.7462 71.8799 37.139C71.8397 36.912 71.8682 36.6882 71.9112 36.4642C72.0054 35.9729 72.094 35.4804 72.1846 34.9886C72.3093 34.3136 72.4336 33.6383 72.5587 32.9633C72.6685 32.3701 72.7797 31.7765 72.8887 31.183C72.9946 30.6074 73.0973 30.031 73.2032 29.4554C73.3048 28.9041 73.4096 28.3528 73.5108 27.8011C73.587 27.3865 73.6637 26.9716 73.7169 26.5531C73.7767 26.0838 73.8354 25.6138 73.8975 25.1449C73.944 24.794 74.0005 24.4438 74.0411 24.0922C74.0911 23.6595 74.118 23.225 74.0587 22.7904C74.0133 22.4583 73.8379 22.2202 73.5362 22.0668C73.3025 21.9478 73.0511 21.8821 72.8038 21.8031C72.4614 21.6938 72.117 21.5896 71.7735 21.4838C71.2984 21.3373 70.8229 21.1912 70.3477 21.0443C69.957 20.9234 69.5665 20.8013 69.1758 20.6801C68.8456 20.5778 68.5141 20.4782 68.1846 20.3724C68.0733 20.3368 67.9672 20.2855 67.8594 20.2406C67.5543 20.1139 67.256 19.9739 66.9903 19.7748C66.6581 19.526 66.422 19.2144 66.3673 18.7943C66.3341 18.5402 66.3622 18.2878 66.4337 18.0414C66.5267 17.7213 66.6781 17.4334 66.918 17.1967C67.1396 16.9778 67.4058 16.8509 67.7188 16.8265ZM78.3214 10.8656C78.7015 10.9411 79.049 11.0951 79.3702 11.307C79.741 11.5519 80.042 11.865 80.2745 12.2416C80.4972 12.6019 80.637 12.9922 80.6964 13.4115C80.7698 13.9296 80.7064 14.4332 80.5157 14.9183C80.298 15.4709 79.9448 15.9237 79.4591 16.2728C79.073 16.5502 78.6447 16.7264 78.1758 16.807C77.5693 16.9116 76.9837 16.8318 76.4249 16.5853C75.8565 16.3342 75.4052 15.9432 75.0762 15.4164C74.7308 14.863 74.5807 14.2588 74.6221 13.6117C74.6468 13.2305 74.7451 12.8649 74.9132 12.5189C75.1363 12.059 75.4548 11.6774 75.8702 11.3763C76.2487 11.1021 76.6696 10.9241 77.1309 10.8412C77.1997 10.8288 77.2692 10.8165 77.338 10.8041H78.003L78.3214 10.8656Z" fill="#262222"/>
<defs>
<clipPath id="clip0_0_878">
<rect width="48.4849" height="48" fill="white" transform="translate(0.0909424)"/>
</clipPath>
</defs>
</svg>
