<svg width="48" height="49" viewBox="0 0 48 49" fill="none" xmlns="http://www.w3.org/2000/svg">
<rect y="0.5" width="48" height="48" rx="24" fill="#C0F266"/>
<path d="M24 14.5C21.2386 14.5 19 16.7386 19 19.5V23.5C19 26.2614 21.2386 28.5 24 28.5C26.7614 28.5 29 26.2614 29 23.5V19.5C29 16.7386 26.7614 14.5 24 14.5Z" fill="#239808"/>
<path d="M22.6117 32.3936L23 35.5H25L25.3883 32.3936C29.6997 31.726 33 27.9984 33 23.5H31C31 27.366 27.866 30.5 24 30.5C20.134 30.5 17 27.366 17 23.5H15C15 27.9984 18.3003 31.726 22.6117 32.3936Z" fill="#239808"/>
</svg>
